# xmcd
#
# Track frame offsets: 
#        150
#        15562
#        30851
#        42680
#        58903
#        74302
#        91888
#        109867
#        125863
#        138661
#        154481
#        169318
#
# Disc length: 2441 seconds
#
# Revision: 2
# Processed by: cddbd v1.5.2PL0 Copyright (c) Steve Scherf et al.
# Submitted via: ExactAudioCopy v0.99pb3
#
DISCID=af09870c
DTITLE=VAST - Crimson
DYEAR=2005
DGENRE=Alternative
TTITLE0=Dead Angels
TTITLE1=I Need To Say Goodbye
TTITLE2=Lost
TTITLE3=Winter In My Heart
TTITLE4=All I Found Was You (Japanese Fantasy)
TTITLE5=That's My Boy
TTITLE6=Evil Little Girl
TTITLE7=Beautiful
TTITLE8=Senorita
TTITLE9=Where It Never Rains
TTITLE10=Bruise
TTITLE11=Goodbye
EXTD=
EXTT0=
EXTT1=
EXTT2=
EXTT3=
EXTT4=
EXTT5=
EXTT6=
EXTT7=
EXTT8=
EXTT9=
EXTT10=
EXTT11=
PLAYORDER=
